<svg width="12" height="12" viewBox="0 0 12 12" fill="none" xmlns="http://www.w3.org/2000/svg">
<path d="M0.750081 0.75H11.2501C11.4048 0.75 11.5532 0.811458 11.6626 0.920854C11.772 1.03025 11.8334 1.17862 11.8334 1.33333V10.6667C11.8334 10.8214 11.772 10.9697 11.6626 11.0791C11.5532 11.1885 11.4048 11.25 11.2501 11.25H0.750081C0.595372 11.25 0.446999 11.1885 0.337602 11.0791C0.228206 10.9697 0.166748 10.8214 0.166748 10.6667V1.33333C0.166748 1.17862 0.228206 1.03025 0.337602 0.920854C0.446999 0.811458 0.595372 0.75 0.750081 0.75ZM6.03508 5.81508L2.29475 2.63883L1.53933 3.52783L6.04267 7.35158L10.4649 3.52492L9.70192 2.64233L6.03567 5.81508H6.03508Z" fill="#FF7129"/>
</svg>
